# Blender v3.0.0 OBJ File: ''
# www.blender.org
mtllib wc_back2.mtl
o roca_gap.005
v -0.104445 0.070668 -0.177130
v -0.101000 0.068240 -0.177130
v -0.106915 0.073854 -0.177130
v -0.095106 0.066940 -0.177130
v -0.108661 0.079882 -0.177130
v -0.102067 0.326983 -0.177130
v -0.117889 0.325606 -0.176861
v -0.125759 0.324309 -0.176810
v -0.129831 0.321163 -0.176810
v -0.132292 0.316645 -0.176810
v -0.132414 0.310485 -0.176810
v -0.113165 0.129372 -0.177130
v -0.110622 0.107259 -0.177130
v -0.109448 0.092859 -0.177130
v 0.000110 0.066562 -0.177130
v 0.095326 0.066940 -0.177130
v 0.101220 0.068240 -0.177130
v 0.104665 0.070668 -0.177130
v 0.107135 0.073854 -0.177130
v 0.108881 0.079882 -0.177130
v 0.109668 0.092859 -0.177130
v 0.110842 0.107259 -0.177130
v 0.113385 0.129372 -0.177130
v 0.132634 0.310485 -0.176810
v 0.132512 0.316645 -0.176810
v 0.130051 0.321163 -0.176810
v 0.125979 0.324309 -0.176810
v 0.121123 0.325343 -0.176810
v 0.102287 0.326983 -0.177130
v 0.000110 0.330593 -0.177309
vt 0.000000 0.000000
vt 0.000000 0.000000
vt 0.000000 0.000000
vt 0.000000 0.000000
vt 0.000000 0.000000
vt 0.000000 0.000000
vt 0.000000 0.000000
vt 0.000000 0.000000
vt 0.000000 0.000000
vt 0.000000 0.000000
vt 0.000000 0.000000
vt 0.000000 0.000000
vt 0.000000 0.000000
vt 0.000000 0.000000
vt 0.000000 0.000000
vt 0.000000 0.000000
vt 0.000000 0.000000
vt 0.000000 0.000000
vt 0.000000 0.000000
vt 0.000000 0.000000
vt 0.000000 0.000000
vt 0.000000 0.000000
vt 0.000000 0.000000
vt 0.000000 0.000000
vt 0.000000 0.000000
vt 0.000000 0.000000
vt 0.000000 0.000000
vt 0.000000 0.000000
vt 0.000000 0.000000
vt 0.000000 0.000000
vn 0.0000 0.0000 -1.0000
vn 0.0000 -0.0001 -1.0000
vn 0.0000 -0.0002 -1.0000
usemtl Default_OBJ.004
s 1
f 1/1/1 3/2/1 2/3/1
f 2/3/1 3/2/1 5/4/2 4/5/2
f 6/6/3 30/7/3 29/8/3 28/9/3 27/10/3 26/11/3 25/12/3 24/13/3 23/14/3 22/15/3 21/16/3 20/17/3 19/18/3 18/19/3 17/20/3 16/21/3 15/22/3 4/5/2 5/4/2 14/23/3 13/24/3 12/25/3 11/26/3 10/27/3 9/28/3 8/29/3 7/30/3
